<svg width="24" height="24" viewBox="0 0 24 24" fill="none" xmlns="http://www.w3.org/2000/svg">
  <rect width="24" height="24" rx="12" fill="#25D366"/>
  <path d="M12.0001 6.00012C8.69115 6.00012 6.00012 8.69115 6.00012 12.0001C6.00012 12.9303 6.22008 13.8236 6.62281 14.628L5.99988 18.0001L9.42001 17.4015C10.183 17.7878 11.067 18.0001 12.0001 18.0001C15.3091 18.0001 18.0001 15.3091 18.0001 12.0001C18.0001 8.69115 15.3091 6.00012 12.0001 6.00012ZM12.0001 16.8001C11.2041 16.8001 10.4581 16.5848 9.81206 16.2069L9.62404 16.0961L7.80008 16.4001L8.11953 14.6477L7.99761 14.4551C7.55006 13.7472 7.32012 12.8982 7.32012 12.0001C7.32012 9.41707 9.41707 7.32012 12.0001 7.32012C14.5832 7.32012 16.6801 9.41707 16.6801 12.0001C16.6801 14.5832 14.5832 16.8001 12.0001 16.8001Z" fill="white"/>
  <path d="M13.9962 13.0932C13.8315 13.0007 12.9405 12.561 12.779 12.5048C12.6175 12.4486 12.5045 12.4225 12.3915 12.5863C12.2785 12.7501 11.9888 13.0932 11.9021 13.2075C11.8154 13.3219 11.7294 13.3351 11.5647 13.2426C11.3999 13.1501 10.8954 12.9836 10.2664 12.4106C9.76927 11.9608 9.43805 11.3965 9.35136 11.2327C9.26467 11.0689 9.35449 10.9927 9.44702 10.9001C9.53156 10.815 9.64762 10.6543 9.73143 10.5414C9.81525 10.4286 9.87232 10.3157 9.95901 10.1754C10.0457 10.0351 10.011 9.94531 9.96728 9.85278C9.92352 9.76026 9.50152 8.73707 9.32196 8.31471C9.1542 7.9285 8.98821 7.97755 8.87116 7.97113C8.7541 7.96471 8.6411 7.9625 8.52811 7.9625C8.41511 7.9625 8.22386 8.00626 8.05787 8.19203C7.89188 8.3778 7.44554 8.82414 7.44554 9.68089C7.44554 10.5376 8.09029 11.3584 8.18503 11.4877C8.27978 11.617 9.35503 13.1664 10.9551 13.9407C11.8195 14.3646 12.2814 14.4729 12.6638 14.5575C13.0462 14.6421 13.4969 14.6226 13.7545 14.5801C14.0121 14.5377 14.7276 14.1712 14.8679 13.756C15.0082 13.3408 15.0082 12.9762 14.9645 12.9001C14.9207 12.8239 14.8216 12.7853 14.6569 12.6927Z" fill="white"/>
</svg>

